<?xml version="1.0" encoding="UTF-8" standalone="no"?>
<svg
   enable-background="new 0 0 962 228.1"
   viewBox="0 0 658 228.1"
   version="1.1"
   id="svg200"
   sodipodi:docname="impot_gouv_fr.svg"
   width="658"
   height="228.10001"
   inkscape:version="1.2.2 (b0a8486, 2022-12-01)"
   xmlns:inkscape="http://www.inkscape.org/namespaces/inkscape"
   xmlns:sodipodi="http://sodipodi.sourceforge.net/DTD/sodipodi-0.dtd"
   xmlns="http://www.w3.org/2000/svg"
   xmlns:svg="http://www.w3.org/2000/svg">
  <defs
     id="defs204" />
  <sodipodi:namedview
     id="namedview202"
     pagecolor="#ffffff"
     bordercolor="#000000"
     borderopacity="0.25"
     inkscape:showpageshadow="2"
     inkscape:pageopacity="0.0"
     inkscape:pagecheckerboard="0"
     inkscape:deskcolor="#d1d1d1"
     showgrid="false"
     inkscape:zoom="1.3711019"
     inkscape:cx="481.72934"
     inkscape:cy="9.8460955"
     inkscape:window-width="3360"
     inkscape:window-height="1837"
     inkscape:window-x="1680"
     inkscape:window-y="25"
     inkscape:window-maximized="1"
     inkscape:current-layer="svg200" />
  <g
     fill="#0083ae"
     id="g132"
     transform="translate(-277.8787,2.1880212)">
    <path
       d="m 346.4,83.5 h -6 v -9.8 h 6 z m -6.2,53.1 V 89.1 h 6 v 47.4 h -6 z"
       id="path120" />
    <path
       d="m 393.4,96.5 c 2,-2.8 4.4,-4.8 7.2,-6.2 2.8,-1.4 6,-2.2 9.6,-2.2 6.4,0 11.2,2 14,5.8 3,3.8 4.4,10 4.4,18.6 v 24 h -5.8 v -25.2 c 0,-6.2 -1,-10.8 -3.2,-13.4 -2,-2.6 -5.4,-4 -10.2,-4 -2.8,0 -5,0.6 -7.2,1.6 -2,1.2 -3.6,2.6 -4.8,4.8 -0.8,1.2 -1.2,2.8 -1.6,4.4 -0.4,1.6 -0.4,4.6 -0.4,8.6 v 23 h -5.8 v -26.4 c 0,-5.4 -1.2,-9.4 -3.4,-12 -2.2,-2.6 -5.6,-3.8 -10.2,-3.8 -2.8,0 -5.2,0.6 -7.2,1.6 -2,1.2 -3.8,2.6 -5,4.8 -0.8,1.2 -1.2,2.8 -1.6,4.4 -0.4,1.6 -0.4,4.6 -0.4,8.6 v 23 h -6 V 89.1 h 6 v 5.4 c 1.8,-2 4,-3.6 6.4,-4.8 2.4,-1 5.2,-1.6 8.4,-1.6 3.6,0 6.8,0.8 9.8,2.2 3.2,1.6 5.4,3.6 7,6.2 z"
       id="path122" />
    <path
       d="m 438.2,89.1 h 6 v 7.6 c 1.8,-2.6 4.2,-4.8 7.4,-6.4 3.2,-1.6 6.6,-2.4 10.2,-2.4 7.2,0 13,2.4 17.8,7.2 4.6,4.8 7,10.6 7,17.8 0,7 -2.4,12.8 -7,17.6 -4.6,4.8 -10.4,7.2 -17.4,7.2 -3.8,0 -7.4,-0.8 -10.4,-2.2 -3,-1.4 -5.6,-3.6 -7.6,-6.6 v 3.2 7 12.4 h -6 z m 6,23.4 c 0,5.4 1.8,10 5.4,13.8 3.6,3.8 7.8,5.8 12.6,5.8 5,0 9.2,-1.8 12.8,-5.4 3.6,-3.6 5.4,-8 5.4,-13.4 0,-5.6 -1.8,-10.2 -5.4,-14 -3.6,-3.8 -8,-5.6 -13,-5.6 -4.6,0 -8.8,1.8 -12.4,5.6 -3.6,3.8 -5.4,8.2 -5.4,13.2 z"
       id="path124" />
    <path
       d="m 491.4,112.7 c 0,-7 2.4,-12.8 7.2,-17.8 4.8,-5 10.4,-7.4 17,-7.4 6.8,0 12.8,2.4 17.6,7.2 4.8,4.8 7.2,10.6 7.2,17.4 0,7 -2.4,13 -7.2,18 -4.8,5 -10.4,7.4 -17.2,7.4 -6.8,0 -12.6,-2.4 -17.4,-7.4 -4.8,-4.5 -7.2,-10.4 -7.2,-17.4 z m 6.4,0 c 0,5.4 1.8,10 5.2,13.8 3.4,3.6 7.8,5.6 13,5.6 5,0 9.4,-1.8 12.8,-5.6 3.4,-3.6 5.2,-8.2 5.2,-13.8 0,-5.6 -1.8,-10.2 -5.2,-13.8 -3.4,-3.6 -8,-5.4 -13.2,-5.4 -4.8,0 -9,1.8 -12.4,5.6 -3.8,3.6 -5.4,8.2 -5.4,13.6 z"
       id="path126" />
    <path
       d="M 551.7,136.6 V 95.1 h -9 v -6.2 h 9 V 73.5 h 6 v 15.4 h 9 v 6.2 h -9 v 41.2 h -6 z"
       id="path128" />
    <path
       d="m 568.5,121.6 h 6.2 v 0.2 c 0,3 0.8,5.4 2.6,7.4 1.6,2 3.8,3 6.2,3 2.4,0 4.4,-0.8 6,-2.2 1.6,-1.4 2.4,-3.4 2.4,-5.6 0,-2.2 -0.6,-4 -1.8,-5.4 -1.2,-1.4 -3.6,-2.6 -6.8,-3.8 -5.2,-1.8 -8.6,-3.8 -10.2,-5.8 -1.6,-2 -2.4,-4.6 -2.4,-7.8 0,-3.8 1.4,-6.8 4,-9.4 2.6,-2.6 6,-3.8 9.8,-3.8 4,0 7.2,1.2 9.6,3.4 2.4,2.2 3.6,5.6 3.8,9.6 h -6.6 c -0.2,-2.2 -0.8,-4 -2.2,-5.2 -1.2,-1.2 -3,-1.8 -5.2,-1.8 -2,0 -3.6,0.6 -5,2 -1.4,1.4 -2,3 -2,5 0,1.4 0.2,2.6 0.8,3.6 0.6,1 1.4,1.8 2.8,2.6 1.2,0.8 2.8,1.4 5,2 2.2,0.6 3.6,1.2 4.4,1.4 3,1.2 5.2,3 6.6,5 1.4,2 2,4.8 2,8 0,4 -1.4,7.4 -4.2,10.2 -2.8,2.6 -6.4,4 -10.8,4 -4.4,0 -8,-1.4 -10.8,-4.4 -2.6,-3.2 -4,-7.2 -4.2,-12.2 z"
       id="path130" />
  </g>
  <path
     d="m 335.6213,138.78802 h -6.2 v -11.4 h 6.2 z"
     fill="#8f8f8f"
     id="path134" />
  <path
     d="m 358.0213,142.58802 c 1,2.8 2.6,5 5,6.4 2.4,1.6 5.4,2.4 8.8,2.4 5.4,0 9.8,-1.8 13,-5.4 3.2,-3.6 4.8,-8.4 4.8,-14.4 v -1.2 c -2.2,3.2 -5,5.4 -7.8,7 -3,1.6 -6.2,2.4 -9.6,2.4 -7.2,0 -13,-2.4 -17.8,-7.2 -4.8,-4.8 -7,-10.6 -7,-17.8 0,-7 2.4,-12.8 7,-17.599999 4.6,-4.8 10.4,-7.2 17.2,-7.2 4,0 7.4,0.8 10.4,2.2 3,1.4 5.4,3.6 7.8,6.8 v -7.8 h 6 v 39.599999 c 0,8.2 -2,14.8 -6.2,19.4 -4.2,4.6 -9.8,7 -17.2,7 -5.4,0 -10,-1.4 -13.8,-4 -3.8,-2.6 -6.4,-6.2 -7.4,-10.6 -0.4,0 6.8,0 6.8,0 z m -4.4,-28.1 c 0,5.6 1.8,10.2 5.2,14 3.6,3.8 7.8,5.6 12.8,5.6 4.6,0 8.8,-1.8 12.4,-5.6 3.6,-3.8 5.4,-8.2 5.4,-13.2 0,-5.4 -1.8,-10 -5.4,-13.8 -3.6,-3.799999 -7.6,-5.799999 -12.4,-5.799999 -5,0 -9.2,1.8 -12.8,5.399999 -3.4,3.6 -5.2,8.2 -5.2,13.4 z"
     fill="#8f8f8f"
     id="path136" />
  <path
     d="m 402.4213,114.88802 c 0,-7 2.4,-12.8 7.2,-17.799999 4.8,-5 10.4,-7.4 17,-7.4 6.8,0 12.8,2.4 17.6,7.2 4.8,4.799999 7.2,10.599999 7.2,17.399999 0,7 -2.4,13 -7.2,18 -4.8,5 -10.4,7.4 -17.2,7.4 -6.8,0 -12.6,-2.4 -17.4,-7.4 -4.8,-4.5 -7.2,-10.4 -7.2,-17.4 z m 6.4,0 c 0,5.4 1.8,10 5.2,13.8 3.4,3.6 7.8,5.6 13,5.6 5,0 9.4,-1.8 12.8,-5.6 3.4,-3.6 5.2,-8.2 5.2,-13.8 0,-5.6 -1.8,-10.2 -5.2,-13.8 -3.4,-3.599999 -8,-5.399999 -13.2,-5.399999 -4.8,0 -9,1.8 -12.4,5.599999 -3.8,3.6 -5.4,8.2 -5.4,13.6 z"
     fill="#8f8f8f"
     id="path138" />
  <path
     d="m 458.2213,91.288021 h 6 v 25.199999 c 0,6.4 1,11 3.2,13.8 2.2,2.8 5.6,4 10.4,4 2.8,0 5.2,-0.6 7.2,-1.6 2,-1.2 3.8,-2.8 5,-4.8 0.8,-1.2 1.2,-2.6 1.6,-4.4 0.4,-1.6 0.4,-4.6 0.4,-8.8 V 91.288021 h 6 v 47.399999 h -6 v -5.2 c -1.8,2.2 -3.8,3.8 -6.2,4.8 -2.2,1 -5,1.6 -8.2,1.6 -6.8,0 -11.8,-1.8 -14.8,-5.6 -3,-3.6 -4.6,-9.8 -4.6,-18.4 z"
     fill="#8f8f8f"
     id="path140" />
  <path
     d="m 526.3213,138.78802 h -5.6 l -18.6,-47.499999 h 6.4 l 15.2,38.199999 15.2,-38.199999 h 6.6 z"
     fill="#8f8f8f"
     id="path142" />
  <path
     d="m 550.9213,138.78802 h -6.2 v -11.4 h 6.2 z"
     fill="#bcbcbc"
     id="path144" />
  <path
     d="m 573.5213,138.78802 h -6 V 96.788021 h -6.4 v -5.4 h 6 v -1.2 c 0,-5 1.2,-8.8 3.8,-11.2 2.6,-2.4 6.4,-3.6 11.6,-3.6 h 0.6 v 5.4 c -3.6,0 -6.2,0.8 -7.8,2.2 -1.6,1.4 -2.2,3.8 -2.2,7.2 v 1.2 h 10 v 5.4 h -10 z"
     fill="#bcbcbc"
     id="path146" />
  <path
     d="m 595.5213,138.78802 h -6.2 V 91.288021 h 5.8 v 5.4 c 1.4,-2 3.2,-3.6 4.8,-4.6 1.8,-1 3.8,-1.4 6.2,-1.6 v 6.6 c -3.8,0.4 -6.6,1.4 -8.2,3.399999 -1.6,2 -2.4,5 -2.4,9.4 z"
     fill="#bcbcbc"
     id="path148" />
</svg>
